<?xml version="1.0" encoding="utf-8"?>
<!-- Generator: Adobe Illustrator 23.0.2, SVG Export Plug-In . SVG Version: 6.00 Build 0)  -->
<svg version="1.1" id="Layer_1" xmlns="http://www.w3.org/2000/svg" xmlns:xlink="http://www.w3.org/1999/xlink" x="0px" y="0px"
	 viewBox="0 0 90 39" style="enable-background:new 0 0 90 39;" xml:space="preserve">
<style type="text/css">
	.st0{fill-rule:evenodd;clip-rule:evenodd;fill:#EC1944;}
	.st1{fill:#EC1944;}
</style>
<g>
	<g>
		<path class="st0" d="M0.9,25.7"/>
	</g>
</g>
<g>
	<g>
		<g>
			<path class="st0" d="M48.7,18.8c0-1,1.4-1.7,3.5-1.7c2.4,0,4.7,0.9,6.1,2.1c0.3,0.2,0.7,0.2,0.8-0.1l1.7-3.4
				c0.1-0.2,0.1-0.5-0.1-0.7c-2.1-1.6-5-2.7-8.5-2.7c-5.8,0-9.1,3.3-9.1,7c0,8.7,13.2,5.7,13.2,9.5c0,1-1.2,1.9-3.7,1.9
				c-2.5,0-5.5-1-7.2-2.4c-0.3-0.2-0.6-0.1-0.8,0.1l-2,3.3c-0.1,0.2-0.1,0.5,0.1,0.7c2.4,2,5.9,3.1,9.6,3.1c6.2,0,9.6-3,9.6-7.1
				C61.9,19.6,48.7,22.3,48.7,18.8z"/>
			<path class="st0" d="M22.2,4H17c-0.2,0-0.4,0.2-0.4,0.4v10.8c-1.7-1.9-4-3-6.6-3c-5.5,0-10,5.2-10,11.6s4.5,11.6,10,11.6
				c2.6,0,4.9-1.1,6.6-3v2.1c0,0.2,0.2,0.4,0.4,0.4h5.1c0.2,0,0.4-0.2,0.4-0.4V4.4C22.5,4.2,22.4,4,22.2,4z M11.3,30.6
				c-3,0-5.4-3-5.4-6.8s2.4-6.8,5.4-6.8c3,0,5.4,3,5.4,6.7v0.1C16.6,27.6,14.2,30.6,11.3,30.6z"/>
			<path class="st0" d="M77,12.2c-2.7,0-4.8,1.1-6.2,3V4.4c0-0.2-0.2-0.4-0.4-0.4h-5.1C65.1,4,65,4.2,65,4.4v30.2
				c0,0.2,0.2,0.4,0.4,0.4h5.1c0.2,0,0.4-0.2,0.4-0.4V21.7c0-2.9,2.1-4.5,4.6-4.5c2.5,0,4.5,1.5,4.5,5.4l0,12.1
				c0,0.2,0.2,0.4,0.4,0.4h5.1c0.2,0,0.4-0.2,0.4-0.4V22.1C85.8,15.3,81.9,12.2,77,12.2z"/>
			<path class="st1" d="M29.2,6.5c0-1.9,1.6-3.5,3.5-3.5c1.9,0,3.5,1.6,3.5,3.5s-1.6,3.5-3.5,3.5C30.8,9.9,29.2,8.4,29.2,6.5z
				 M39.3,29.3C37,30.7,34.5,31,32.7,31c-1.7,0-4.3-0.4-6.6-1.7c-0.4-0.2-0.6,0.2-0.5,0.5c0.8,3.3,3.7,5.7,7.1,5.7h0
				c3.4,0,6.3-2.4,7.1-5.7C39.9,29.5,39.7,29.1,39.3,29.3z M37.9,21c-1.9,1.1-3.8,1.4-5.2,1.4c-1.4,0-3.4-0.3-5.2-1.4
				c-0.3-0.2-0.5,0.1-0.4,0.4c0.6,2.6,2.9,4.5,5.6,4.5h0c2.7,0,5-1.9,5.6-4.5C38.4,21.2,38.2,20.9,37.9,21z M36.5,14
				c-1.3,0.8-2.8,1-3.7,1c-1,0-2.4-0.2-3.7-1c-0.2-0.1-0.3,0.1-0.3,0.3c0.5,1.9,2.1,3.2,4,3.2h0c1.9,0,3.6-1.4,4-3.2
				C36.8,14.1,36.7,13.9,36.5,14z"/>
		</g>
	</g>
	<g>
		<path class="st1" d="M88.3,33.6v0.2h-0.4v1.1h-0.3v-1.1h-0.4v-0.2H88.3z M89.7,34.9l0-0.8c0-0.1,0-0.2,0-0.4h0
			c0,0.1-0.1,0.3-0.1,0.4l-0.2,0.7h-0.3l-0.2-0.7c0-0.1-0.1-0.3-0.1-0.4h0c0,0.1,0,0.2,0,0.4l0,0.8h-0.3l0.1-1.3h0.4l0.2,0.6
			c0,0.1,0.1,0.2,0.1,0.3h0c0-0.1,0.1-0.2,0.1-0.3l0.2-0.6h0.4l0.1,1.3H89.7z"/>
	</g>
</g>
</svg>
